<svg width="303" height="113" viewBox="0 0 303 113" fill="none" xmlns="http://www.w3.org/2000/svg">
<g filter="url(#filter0_d_57_31)">
<path d="M32.8644 31.8C30.6777 31.8 29.5844 30.68 29.5844 28.44C29.5844 26.3067 30.6777 25.24 32.8644 25.24C34.9444 25.24 35.9844 26.3067 35.9844 28.44C35.9844 30.68 34.9444 31.8 32.8644 31.8ZM41.9844 31.8C39.7977 31.8 38.7044 30.68 38.7044 28.44C38.7044 26.3067 39.7977 25.24 41.9844 25.24C44.0644 25.24 45.1044 26.3067 45.1044 28.44C45.1044 30.68 44.0644 31.8 41.9844 31.8ZM57.5044 72.04H60.2244V77H56.7844C51.0777 77 47.1044 74.76 44.8644 70.28C42.091 73.16 38.6777 74.6 34.6244 74.6C30.0377 74.6 26.411 72.8667 23.7444 69.4C21.5044 66.4667 20.3844 62.8133 20.3844 58.44C20.3844 53.32 21.8777 49.2133 24.8644 46.12C27.4777 43.4 30.7044 42.04 34.5444 42.04C38.011 42.04 40.9177 43.0533 43.2644 45.08V40.76L48.6244 37.96V62.92C48.6244 69 51.5844 72.04 57.5044 72.04ZM43.2644 51.16C40.9177 48.3333 38.0644 46.92 34.7044 46.92C32.0377 46.92 29.851 48.0133 28.1444 50.2C26.491 52.3333 25.6644 55.1067 25.6644 58.52C25.6644 61.9867 26.491 64.76 28.1444 66.84C29.851 68.92 32.0644 69.96 34.7844 69.96C38.251 69.96 41.131 68.44 43.4244 65.4C43.3177 64.44 43.2644 63.6667 43.2644 63.08V51.16ZM84.3506 72.04H87.1506V77H83.7106C78.9106 77 75.3106 75.3733 72.9106 72.12C70.404 75.3733 66.7773 77 62.0306 77H58.5906V72.04H61.3906C67.2573 72.04 70.1906 69 70.1906 62.92V45.56L75.5506 42.76V62.92C75.5506 69 78.484 72.04 84.3506 72.04ZM66.1906 85.4C68.324 85.4 69.3906 86.4933 69.3906 88.68C69.3906 90.8667 68.324 91.96 66.1906 91.96C64.0573 91.96 62.9906 90.8667 62.9906 88.68C62.9906 86.4933 64.0573 85.4 66.1906 85.4ZM75.3106 85.4C77.444 85.4 78.5106 86.4933 78.5106 88.68C78.5106 90.8667 77.444 91.96 75.3106 91.96C73.1773 91.96 72.1106 90.8667 72.1106 88.68C72.1106 86.4933 73.1773 85.4 75.3106 85.4ZM85.5437 77V72.04H90.4238C96.3438 72.04 99.3038 69 99.3038 62.92V51.4L104.664 48.6V62.92C104.664 69 107.597 72.04 113.464 72.04H116.424C122.29 72.04 125.224 69 125.224 62.92V48.52L130.584 45.64V62.92C130.584 69 133.544 72.04 139.464 72.04H142.344C148.264 72.04 151.224 69 151.224 62.92V45.56L156.584 42.76V62.6C156.584 68.8933 159.624 72.04 165.704 72.04H170.344V77H165.144C160.077 77 156.37 75.2133 154.024 71.64C151.677 75.2133 148.05 77 143.144 77H138.744C133.784 77 130.184 75.24 127.944 71.72C125.65 75.24 122.077 77 117.224 77H112.824C107.864 77 104.237 75.24 101.944 71.72C99.7038 75.24 96.1038 77 91.1438 77H85.5437ZM194.507 72.04H197.307V77H193.867C189.067 77 185.467 75.3733 183.067 72.12C180.56 75.3733 176.934 77 172.187 77H168.747V72.04H171.547C177.414 72.04 180.347 69 180.347 62.92V45.56L185.707 42.76V62.92C185.707 69 188.64 72.04 194.507 72.04ZM176.347 85.4C178.48 85.4 179.547 86.4933 179.547 88.68C179.547 90.8667 178.48 91.96 176.347 91.96C174.214 91.96 173.147 90.8667 173.147 88.68C173.147 86.4933 174.214 85.4 176.347 85.4ZM185.467 85.4C187.6 85.4 188.667 86.4933 188.667 88.68C188.667 90.8667 187.6 91.96 185.467 91.96C183.334 91.96 182.267 90.8667 182.267 88.68C182.267 86.4933 183.334 85.4 185.467 85.4ZM200.74 32.04L202.26 29.24H204.34C203.807 28.28 203.54 27.2933 203.54 26.28C203.54 24.7867 204.1 23.5067 205.22 22.44C206.34 21.32 207.673 20.76 209.22 20.76C210.393 20.76 211.54 21.1333 212.66 21.88V24.84C211.593 24.0933 210.553 23.72 209.54 23.72C208.687 23.72 207.967 24.0133 207.38 24.6C206.793 25.1333 206.5 25.7733 206.5 26.52C206.5 27.4267 206.873 28.3333 207.62 29.24H214.66L213.14 32.04H200.74ZM195.7 77V72.04H198.5C204.367 72.04 207.3 69 207.3 62.92V45.56L212.66 42.76V63.08C212.66 67.56 211.353 71.0533 208.74 73.56C206.34 75.8533 203.14 77 199.14 77H195.7ZM245.091 72.04H247.891V77H244.451C241.145 77 238.398 76.2 236.211 74.6C235.785 83.4533 232.211 89.0533 225.491 91.4C223.785 91.9867 221.971 92.28 220.051 92.28C216.958 92.28 213.971 91.5333 211.091 90.04V85.32C213.811 86.8133 216.585 87.56 219.411 87.56C221.651 87.56 223.625 87.0533 225.331 86.04C229.065 83.8 230.931 79.6133 230.931 73.48V45.56L236.211 42.76V42.84L236.291 42.76V62.92C236.291 69 239.225 72.04 245.091 72.04ZM246.325 77V72.04H248.565C254.645 72.04 257.685 68.8933 257.685 62.6V28.2L263.045 25.4V62.68C263.045 67.2133 261.712 70.7867 259.045 73.4C256.538 75.8 253.232 77 249.125 77H246.325ZM277.45 77V28.2L282.81 25.4V77H277.45Z" fill="white"/>
</g>
<defs>
<filter id="filter0_d_57_31" x="0.384277" y="0.759766" width="302.426" height="111.521" filterUnits="userSpaceOnUse" color-interpolation-filters="sRGB">
<feFlood flood-opacity="0" result="BackgroundImageFix"/>
<feColorMatrix in="SourceAlpha" type="matrix" values="0 0 0 0 0 0 0 0 0 0 0 0 0 0 0 0 0 0 127 0" result="hardAlpha"/>
<feOffset/>
<feGaussianBlur stdDeviation="10"/>
<feComposite in2="hardAlpha" operator="out"/>
<feColorMatrix type="matrix" values="0 0 0 0 1 0 0 0 0 1 0 0 0 0 1 0 0 0 1 0"/>
<feBlend mode="normal" in2="BackgroundImageFix" result="effect1_dropShadow_57_31"/>
<feBlend mode="normal" in="SourceGraphic" in2="effect1_dropShadow_57_31" result="shape"/>
</filter>
</defs>
</svg>
