<svg width="346" height="76" viewBox="0 0 346 76" fill="none" xmlns="http://www.w3.org/2000/svg">
<path d="M21.7125 19.8C19.5792 19.8 18.5125 18.68 18.5125 16.44C18.5125 14.3067 19.5792 13.24 21.7125 13.24C23.8458 13.24 24.9125 14.3067 24.9125 16.44C24.9125 18.68 23.8458 19.8 21.7125 19.8ZM30.9125 19.8C28.7258 19.8 27.6325 18.68 27.6325 16.44C27.6325 14.3067 28.7258 13.24 30.9125 13.24C32.9925 13.24 34.0325 14.3067 34.0325 16.44C34.0325 18.68 32.9925 19.8 30.9125 19.8ZM13.4725 57C9.52583 57 6.37917 55.7733 4.0325 53.32C1.68583 50.8133 0.5125 47.4533 0.5125 43.24V32.76L5.8725 29.96V42.6C5.8725 48.8933 8.80583 52.04 14.6725 52.04H41.4725C47.3392 52.04 50.2725 48.8933 50.2725 42.6V25.56L55.6325 22.76V43.24C55.6325 47.7733 54.2458 51.2933 51.4725 53.8C49.0725 55.9333 45.9258 57 42.0325 57H13.4725ZM83.5638 57C79.0304 57 75.5371 55.5333 73.0838 52.6C71.0571 50.0933 70.0438 46.92 70.0438 43.08V8.2L75.4038 5.4V42.92C75.4038 49 78.3371 52.04 84.2038 52.04H87.0038V57H83.5638ZM111.163 52.04H113.963V57H110.523C105.723 57 102.123 55.3733 99.7231 52.12C97.2165 55.3733 93.5898 57 88.8431 57H85.4031V52.04H88.2031C94.0698 52.04 97.0031 49 97.0031 42.92V25.56L102.363 22.76V42.92C102.363 49 105.296 52.04 111.163 52.04ZM93.0031 65.4C95.1365 65.4 96.2031 66.4933 96.2031 68.68C96.2031 70.8667 95.1365 71.96 93.0031 71.96C90.8698 71.96 89.8031 70.8667 89.8031 68.68C89.8031 66.4933 90.8698 65.4 93.0031 65.4ZM102.123 65.4C104.256 65.4 105.323 66.4933 105.323 68.68C105.323 70.8667 104.256 71.96 102.123 71.96C99.9898 71.96 98.9231 70.8667 98.9231 68.68C98.9231 66.4933 99.9898 65.4 102.123 65.4ZM117.396 12.04L118.916 9.24H120.996C120.463 8.28 120.196 7.29333 120.196 6.28C120.196 4.78666 120.756 3.50666 121.876 2.44C122.996 1.32 124.33 0.759999 125.876 0.759999C127.05 0.759999 128.196 1.13333 129.316 1.88V4.84C128.25 4.09333 127.21 3.72 126.196 3.72C125.343 3.72 124.623 4.01333 124.036 4.6C123.45 5.13333 123.156 5.77333 123.156 6.52C123.156 7.42666 123.53 8.33333 124.276 9.24H131.316L129.796 12.04H117.396ZM112.356 57V52.04H115.156C121.023 52.04 123.956 49 123.956 42.92V25.56L129.316 22.76V43.08C129.316 47.56 128.01 51.0533 125.396 53.56C122.996 55.8533 119.796 57 115.796 57H112.356ZM155.908 57C151.374 57 147.881 55.5333 145.428 52.6C143.401 50.0933 142.388 46.92 142.388 43.08V8.2L147.748 5.4V42.92C147.748 49 150.681 52.04 156.548 52.04H159.348V57H155.908ZM237.747 52.04H240.547V57H237.107C232.307 57 228.707 55.3733 226.307 52.12C223.907 55.3733 220.28 57 215.427 57H182.867C178.067 57 174.467 55.3733 172.067 52.12C169.56 55.3733 165.934 57 161.187 57H157.747V52.04H160.547C166.414 52.04 169.347 49 169.347 42.92V31.4L174.707 28.6V42.92C174.707 47.9333 176.654 50.8667 180.547 51.72C182.52 43.5067 185.96 36.6267 190.867 31.08C196.36 24.8933 202.814 21.8 210.227 21.8C216.2 21.8 220.947 23.8533 224.467 27.96C227.454 31.48 228.947 35.8267 228.947 41V43.08C228.947 49.0533 231.88 52.04 237.747 52.04ZM215.027 52.04C220.734 52.04 223.587 48.8933 223.587 42.6V41C223.587 36.52 222.174 32.92 219.347 30.2C216.947 27.8533 213.934 26.68 210.307 26.68C204.067 26.68 198.52 29.6133 193.667 35.48C189.987 39.96 187.214 45.48 185.347 52.04H215.027ZM238.919 57V52.04H247.879C259.505 52.04 268.572 48.0933 275.079 40.2C270.332 31.1333 264.599 26.6 257.879 26.6C253.292 26.6 248.812 28.92 244.439 33.56V28.28C248.812 23.96 253.372 21.8 258.119 21.8H258.279C266.652 21.8 273.905 27.4533 280.039 38.76V42.04C272.252 52.0133 261.505 57 247.799 57H238.919ZM320.416 8.2L325.696 5.4V42.68C325.696 47.2133 324.362 50.7867 321.696 53.4C319.242 55.8 315.962 57 311.856 57H285.616L288.176 52.04H300.416V18.6L305.696 15.8V52.04H311.296C317.376 52.04 320.416 48.8933 320.416 42.6V8.2ZM307.056 67.88C305.989 67.08 304.949 66.68 303.936 66.68C303.082 66.68 302.362 66.9467 301.776 67.48C301.189 68.0667 300.896 68.7333 300.896 69.48C300.896 70.3867 301.269 71.2933 302.016 72.2H309.056L307.536 75.08H295.136L296.656 72.2H298.736C298.202 71.24 297.936 70.28 297.936 69.32C297.936 67.8267 298.496 66.52 299.616 65.4C300.736 64.3333 302.069 63.8 303.616 63.8C304.789 63.8 305.936 64.1467 307.056 64.84V67.88ZM340.122 57V8.2L345.482 5.4V57H340.122Z" fill="white"/>
</svg>
