<svg width="154" height="122" viewBox="0 0 154 122" fill="none" xmlns="http://www.w3.org/2000/svg">
<g filter="url(#filter0_d_58_76)">
<path d="M55.4666 97.84C51.0932 100.613 46.1599 102 40.6666 102C34.2666 102 29.1999 100 25.4666 96C22.3732 92.6933 20.8266 88.7733 20.8266 84.24C20.8266 80.9333 21.6799 77.9467 23.3866 75.28C25.0932 72.6133 27.4132 70.6133 30.3466 69.28C24.9066 66.1867 22.1866 60.9067 22.1866 53.44C22.1866 48.0533 24.0266 43.7867 27.7066 40.64C30.5866 38.1333 34.0266 36.8533 38.0266 36.8C43.4666 36.8 47.7599 38.96 50.9066 43.28V48.56C47.6532 43.9733 43.5199 41.68 38.5066 41.68C35.1999 41.68 32.5332 42.8 30.5066 45.04C28.4799 47.2267 27.4666 50.08 27.4666 53.6C27.4666 57.7067 28.6932 60.9867 31.1466 63.44C33.4932 65.84 36.6399 67.04 40.5866 67.04H54.7466V72H40.7466C35.5732 72 31.6532 73.4133 28.9866 76.24C26.9599 78.3733 25.9466 81.0133 25.9466 84.16C25.9466 88 27.3599 91.1467 30.1866 93.6C32.8532 95.8933 36.3466 97.04 40.6666 97.04H40.8266C46.9066 97.04 51.7866 95.68 55.4666 92.96V97.84ZM88.4272 67.04H91.2272V72H87.7872C84.4805 72 81.7339 71.2 79.5472 69.6C79.1205 78.4533 75.5472 84.0533 68.8272 86.4C67.1205 86.9867 65.3072 87.28 63.3872 87.28C60.2939 87.28 57.3072 86.5333 54.4272 85.04V80.32C57.1472 81.8133 59.9205 82.56 62.7472 82.56C64.9872 82.56 66.9605 82.0533 68.6672 81.04C72.4005 78.8 74.2672 74.6133 74.2672 68.48V40.56L79.5472 37.76V37.84L79.6272 37.76V57.92C79.6272 64 82.5605 67.04 88.4272 67.04ZM115.421 67.04H118.221V72H114.781C109.981 72 106.381 70.3733 103.981 67.12C101.474 70.3733 97.8476 72 93.1009 72H89.6609V67.04H92.4609C98.3276 67.04 101.261 64 101.261 57.92V40.56L106.621 37.76V57.92C106.621 64 109.554 67.04 115.421 67.04ZM103.101 80.4C105.181 80.4 106.221 81.4667 106.221 83.6C106.221 85.84 105.181 86.96 103.101 86.96C100.914 86.96 99.8209 85.84 99.8209 83.6C99.8209 81.4667 100.914 80.4 103.101 80.4ZM121.414 27.2C119.227 27.2 118.134 26.08 118.134 23.84C118.134 21.7067 119.227 20.64 121.414 20.64C123.494 20.64 124.534 21.7067 124.534 23.84C124.534 26.08 123.494 27.2 121.414 27.2ZM130.534 27.2C128.347 27.2 127.254 26.08 127.254 23.84C127.254 21.7067 128.347 20.64 130.534 20.64C132.614 20.64 133.654 21.7067 133.654 23.84C133.654 26.08 132.614 27.2 130.534 27.2ZM116.614 72V67.04H119.414C125.281 67.04 128.214 64 128.214 57.92V40.56L133.574 37.76V58.08C133.574 62.56 132.267 66.0533 129.654 68.56C127.254 70.8533 124.054 72 120.054 72H116.614Z" fill="white"/>
</g>
<defs>
<filter id="filter0_d_58_76" x="0.82666" y="0.640625" width="152.828" height="121.359" filterUnits="userSpaceOnUse" color-interpolation-filters="sRGB">
<feFlood flood-opacity="0" result="BackgroundImageFix"/>
<feColorMatrix in="SourceAlpha" type="matrix" values="0 0 0 0 0 0 0 0 0 0 0 0 0 0 0 0 0 0 127 0" result="hardAlpha"/>
<feOffset/>
<feGaussianBlur stdDeviation="10"/>
<feComposite in2="hardAlpha" operator="out"/>
<feColorMatrix type="matrix" values="0 0 0 0 1 0 0 0 0 1 0 0 0 0 1 0 0 0 0.25 0"/>
<feBlend mode="normal" in2="BackgroundImageFix" result="effect1_dropShadow_58_76"/>
<feBlend mode="normal" in="SourceGraphic" in2="effect1_dropShadow_58_76" result="shape"/>
</filter>
</defs>
</svg>
