<svg width="263" height="73"  viewBox="0 0 386 116" fill="none" xmlns="http://www.w3.org/2000/svg">
<g filter="url(#filter0_d_58_25)">
<path d="M41.7125 39.8C39.5792 39.8 38.5125 38.68 38.5125 36.44C38.5125 34.3067 39.5792 33.24 41.7125 33.24C43.8458 33.24 44.9125 34.3067 44.9125 36.44C44.9125 38.68 43.8458 39.8 41.7125 39.8ZM50.9125 39.8C48.7258 39.8 47.6325 38.68 47.6325 36.44C47.6325 34.3067 48.7258 33.24 50.9125 33.24C52.9925 33.24 54.0325 34.3067 54.0325 36.44C54.0325 38.68 52.9925 39.8 50.9125 39.8ZM33.4725 77C29.5258 77 26.3792 75.7733 24.0325 73.32C21.6858 70.8133 20.5125 67.4533 20.5125 63.24V52.76L25.8725 49.96V62.6C25.8725 68.8933 28.8058 72.04 34.6725 72.04H61.4725C67.3392 72.04 70.2725 68.8933 70.2725 62.6V45.56L75.6325 42.76V63.24C75.6325 67.7733 74.2458 71.2933 71.4725 73.8C69.0725 75.9333 65.9258 77 62.0325 77H33.4725ZM103.564 77C99.0304 77 95.5371 75.5333 93.0838 72.6C91.0571 70.0933 90.0438 66.92 90.0438 63.08V28.2L95.4038 25.4V62.92C95.4038 69 98.3371 72.04 104.204 72.04H107.004V77H103.564ZM131.163 72.04H133.963V77H130.523C125.723 77 122.123 75.3733 119.723 72.12C117.216 75.3733 113.59 77 108.843 77H105.403V72.04H108.203C114.07 72.04 117.003 69 117.003 62.92V45.56L122.363 42.76V62.92C122.363 69 125.296 72.04 131.163 72.04ZM113.003 85.4C115.136 85.4 116.203 86.4933 116.203 88.68C116.203 90.8667 115.136 91.96 113.003 91.96C110.87 91.96 109.803 90.8667 109.803 88.68C109.803 86.4933 110.87 85.4 113.003 85.4ZM122.123 85.4C124.256 85.4 125.323 86.4933 125.323 88.68C125.323 90.8667 124.256 91.96 122.123 91.96C119.99 91.96 118.923 90.8667 118.923 88.68C118.923 86.4933 119.99 85.4 122.123 85.4ZM137.396 32.04L138.916 29.24H140.996C140.463 28.28 140.196 27.2933 140.196 26.28C140.196 24.7867 140.756 23.5067 141.876 22.44C142.996 21.32 144.33 20.76 145.876 20.76C147.05 20.76 148.196 21.1333 149.316 21.88V24.84C148.25 24.0933 147.21 23.72 146.196 23.72C145.343 23.72 144.623 24.0133 144.036 24.6C143.45 25.1333 143.156 25.7733 143.156 26.52C143.156 27.4267 143.53 28.3333 144.276 29.24H151.316L149.796 32.04H137.396ZM132.356 77V72.04H135.156C141.023 72.04 143.956 69 143.956 62.92V45.56L149.316 42.76V63.08C149.316 67.56 148.01 71.0533 145.396 73.56C142.996 75.8533 139.796 77 135.796 77H132.356ZM175.908 77C171.374 77 167.881 75.5333 165.428 72.6C163.401 70.0933 162.388 66.92 162.388 63.08V28.2L167.748 25.4V62.92C167.748 69 170.681 72.04 176.548 72.04H179.348V77H175.908ZM257.747 72.04H260.547V77H257.107C252.307 77 248.707 75.3733 246.307 72.12C243.907 75.3733 240.28 77 235.427 77H202.867C198.067 77 194.467 75.3733 192.067 72.12C189.56 75.3733 185.934 77 181.187 77H177.747V72.04H180.547C186.414 72.04 189.347 69 189.347 62.92V51.4L194.707 48.6V62.92C194.707 67.9333 196.654 70.8667 200.547 71.72C202.52 63.5067 205.96 56.6267 210.867 51.08C216.36 44.8933 222.814 41.8 230.227 41.8C236.2 41.8 240.947 43.8533 244.467 47.96C247.454 51.48 248.947 55.8267 248.947 61V63.08C248.947 69.0533 251.88 72.04 257.747 72.04ZM235.027 72.04C240.734 72.04 243.587 68.8933 243.587 62.6V61C243.587 56.52 242.174 52.92 239.347 50.2C236.947 47.8533 233.934 46.68 230.307 46.68C224.067 46.68 218.52 49.6133 213.667 55.48C209.987 59.96 207.214 65.48 205.347 72.04H235.027ZM258.919 77V72.04H267.879C279.505 72.04 288.572 68.0933 295.079 60.2C290.332 51.1333 284.599 46.6 277.879 46.6C273.292 46.6 268.812 48.92 264.439 53.56V48.28C268.812 43.96 273.372 41.8 278.119 41.8H278.279C286.652 41.8 293.905 47.4533 300.039 58.76V62.04C292.252 72.0133 281.505 77 267.799 77H258.919ZM340.416 28.2L345.696 25.4V62.68C345.696 67.2133 344.362 70.7867 341.696 73.4C339.242 75.8 335.962 77 331.856 77H305.616L308.176 72.04H320.416V38.6L325.696 35.8V72.04H331.296C337.376 72.04 340.416 68.8933 340.416 62.6V28.2ZM327.056 87.88C325.989 87.08 324.949 86.68 323.936 86.68C323.082 86.68 322.362 86.9467 321.776 87.48C321.189 88.0667 320.896 88.7333 320.896 89.48C320.896 90.3867 321.269 91.2933 322.016 92.2H329.056L327.536 95.08H315.136L316.656 92.2H318.736C318.202 91.24 317.936 90.28 317.936 89.32C317.936 87.8267 318.496 86.52 319.616 85.4C320.736 84.3333 322.069 83.8 323.616 83.8C324.789 83.8 325.936 84.1467 327.056 84.84V87.88ZM360.122 77V28.2L365.482 25.4V77H360.122Z" fill="white"/>
</g>
<defs>
<filter id="filter0_d_58_25" x="0.512695" y="0.759766" width="384.969" height="114.32" filterUnits="userSpaceOnUse" color-interpolation-filters="sRGB">
<feFlood flood-opacity="0" result="BackgroundImageFix"/>
<feColorMatrix in="SourceAlpha" type="matrix" values="0 0 0 0 0 0 0 0 0 0 0 0 0 0 0 0 0 0 127 0" result="hardAlpha"/>
<feOffset/>
<feGaussianBlur stdDeviation="10"/>
<feComposite in2="hardAlpha" operator="out"/>
<feColorMatrix type="matrix" values="0 0 0 0 1 0 0 0 0 1 0 0 0 0 1 0 0 0 1 0"/>
<feBlend mode="normal" in2="BackgroundImageFix" result="effect1_dropShadow_58_25"/>
<feBlend mode="normal" in="SourceGraphic" in2="effect1_dropShadow_58_25" result="shape"/>
</filter>
</defs>
</svg>
