<svg width="263" height="73" viewBox="0 0 263 73" fill="none" xmlns="http://www.w3.org/2000/svg">
<path d="M12.8644 11.8C10.6777 11.8 9.58438 10.68 9.58438 8.44C9.58438 6.30666 10.6777 5.24 12.8644 5.24C14.9444 5.24 15.9844 6.30666 15.9844 8.44C15.9844 10.68 14.9444 11.8 12.8644 11.8ZM21.9844 11.8C19.7977 11.8 18.7044 10.68 18.7044 8.44C18.7044 6.30666 19.7977 5.24 21.9844 5.24C24.0644 5.24 25.1044 6.30666 25.1044 8.44C25.1044 10.68 24.0644 11.8 21.9844 11.8ZM37.5044 52.04H40.2244V57H36.7844C31.0777 57 27.1044 54.76 24.8644 50.28C22.091 53.16 18.6777 54.6 14.6244 54.6C10.0377 54.6 6.41104 52.8667 3.74438 49.4C1.50438 46.4667 0.384375 42.8133 0.384375 38.44C0.384375 33.32 1.87771 29.2133 4.86438 26.12C7.47771 23.4 10.7044 22.04 14.5444 22.04C18.011 22.04 20.9177 23.0533 23.2644 25.08V20.76L28.6244 17.96V42.92C28.6244 49 31.5844 52.04 37.5044 52.04ZM23.2644 31.16C20.9177 28.3333 18.0644 26.92 14.7044 26.92C12.0377 26.92 9.85104 28.0133 8.14438 30.2C6.49104 32.3333 5.66438 35.1067 5.66438 38.52C5.66438 41.9867 6.49104 44.76 8.14438 46.84C9.85104 48.92 12.0644 49.96 14.7844 49.96C18.251 49.96 21.131 48.44 23.4244 45.4C23.3177 44.44 23.2644 43.6667 23.2644 43.08V31.16ZM64.3506 52.04H67.1506V57H63.7106C58.9106 57 55.3106 55.3733 52.9106 52.12C50.404 55.3733 46.7773 57 42.0306 57H38.5906V52.04H41.3906C47.2573 52.04 50.1906 49 50.1906 42.92V25.56L55.5506 22.76V42.92C55.5506 49 58.484 52.04 64.3506 52.04ZM46.1906 65.4C48.324 65.4 49.3906 66.4933 49.3906 68.68C49.3906 70.8667 48.324 71.96 46.1906 71.96C44.0573 71.96 42.9906 70.8667 42.9906 68.68C42.9906 66.4933 44.0573 65.4 46.1906 65.4ZM55.3106 65.4C57.444 65.4 58.5106 66.4933 58.5106 68.68C58.5106 70.8667 57.444 71.96 55.3106 71.96C53.1773 71.96 52.1106 70.8667 52.1106 68.68C52.1106 66.4933 53.1773 65.4 55.3106 65.4ZM65.5437 57V52.04H70.4238C76.3438 52.04 79.3038 49 79.3038 42.92V31.4L84.6638 28.6V42.92C84.6638 49 87.5971 52.04 93.4638 52.04H96.4238C102.29 52.04 105.224 49 105.224 42.92V28.52L110.584 25.64V42.92C110.584 49 113.544 52.04 119.464 52.04H122.344C128.264 52.04 131.224 49 131.224 42.92V25.56L136.584 22.76V42.6C136.584 48.8933 139.624 52.04 145.704 52.04H150.344V57H145.144C140.077 57 136.37 55.2133 134.024 51.64C131.677 55.2133 128.05 57 123.144 57H118.744C113.784 57 110.184 55.24 107.944 51.72C105.65 55.24 102.077 57 97.2238 57H92.8238C87.8638 57 84.2371 55.24 81.9438 51.72C79.7038 55.24 76.1038 57 71.1438 57H65.5437ZM174.507 52.04H177.307V57H173.867C169.067 57 165.467 55.3733 163.067 52.12C160.56 55.3733 156.934 57 152.187 57H148.747V52.04H151.547C157.414 52.04 160.347 49 160.347 42.92V25.56L165.707 22.76V42.92C165.707 49 168.64 52.04 174.507 52.04ZM156.347 65.4C158.48 65.4 159.547 66.4933 159.547 68.68C159.547 70.8667 158.48 71.96 156.347 71.96C154.214 71.96 153.147 70.8667 153.147 68.68C153.147 66.4933 154.214 65.4 156.347 65.4ZM165.467 65.4C167.6 65.4 168.667 66.4933 168.667 68.68C168.667 70.8667 167.6 71.96 165.467 71.96C163.334 71.96 162.267 70.8667 162.267 68.68C162.267 66.4933 163.334 65.4 165.467 65.4ZM180.74 12.04L182.26 9.24H184.34C183.807 8.28 183.54 7.29333 183.54 6.28C183.54 4.78666 184.1 3.50666 185.22 2.44C186.34 1.32 187.673 0.759999 189.22 0.759999C190.393 0.759999 191.54 1.13333 192.66 1.88V4.84C191.593 4.09333 190.553 3.72 189.54 3.72C188.687 3.72 187.967 4.01333 187.38 4.6C186.793 5.13333 186.5 5.77333 186.5 6.52C186.5 7.42666 186.873 8.33333 187.62 9.24H194.66L193.14 12.04H180.74ZM175.7 57V52.04H178.5C184.367 52.04 187.3 49 187.3 42.92V25.56L192.66 22.76V43.08C192.66 47.56 191.353 51.0533 188.74 53.56C186.34 55.8533 183.14 57 179.14 57H175.7ZM225.091 52.04H227.891V57H224.451C221.145 57 218.398 56.2 216.211 54.6C215.785 63.4533 212.211 69.0533 205.491 71.4C203.785 71.9867 201.971 72.28 200.051 72.28C196.958 72.28 193.971 71.5333 191.091 70.04V65.32C193.811 66.8133 196.585 67.56 199.411 67.56C201.651 67.56 203.625 67.0533 205.331 66.04C209.065 63.8 210.931 59.6133 210.931 53.48V25.56L216.211 22.76V22.84L216.291 22.76V42.92C216.291 49 219.225 52.04 225.091 52.04ZM226.325 57V52.04H228.565C234.645 52.04 237.685 48.8933 237.685 42.6V8.2L243.045 5.4V42.68C243.045 47.2133 241.712 50.7867 239.045 53.4C236.538 55.8 233.232 57 229.125 57H226.325ZM257.45 57V8.2L262.81 5.4V57H257.45Z" fill="white"/>
</svg>
