<svg width="114" height="82"  viewBox="0 0 114 82" fill="none" xmlns="http://www.w3.org/2000/svg">
<path d="M35.4666 77.84C31.0932 80.6133 26.1599 82 20.6666 82C14.2666 82 9.1999 80 5.46656 76C2.37323 72.6933 0.826563 68.7733 0.826563 64.24C0.826563 60.9333 1.6799 57.9467 3.38656 55.28C5.09323 52.6133 7.41323 50.6133 10.3466 49.28C4.90656 46.1867 2.18656 40.9067 2.18656 33.44C2.18656 28.0533 4.02656 23.7867 7.70656 20.64C10.5866 18.1333 14.0266 16.8533 18.0266 16.8C23.4666 16.8 27.7599 18.96 30.9066 23.28V28.56C27.6532 23.9733 23.5199 21.68 18.5066 21.68C15.1999 21.68 12.5332 22.8 10.5066 25.04C8.4799 27.2267 7.46656 30.08 7.46656 33.6C7.46656 37.7067 8.69323 40.9867 11.1466 43.44C13.4932 45.84 16.6399 47.04 20.5866 47.04H34.7466V52H20.7466C15.5732 52 11.6532 53.4133 8.98656 56.24C6.9599 58.3733 5.94656 61.0133 5.94656 64.16C5.94656 68 7.3599 71.1467 10.1866 73.6C12.8532 75.8933 16.3466 77.04 20.6666 77.04H20.8266C26.9066 77.04 31.7866 75.68 35.4666 72.96V77.84ZM68.4272 47.04H71.2272V52H67.7872C64.4805 52 61.7339 51.2 59.5472 49.6C59.1205 58.4533 55.5472 64.0533 48.8272 66.4C47.1205 66.9867 45.3072 67.28 43.3872 67.28C40.2939 67.28 37.3072 66.5333 34.4272 65.04V60.32C37.1472 61.8133 39.9205 62.56 42.7472 62.56C44.9872 62.56 46.9605 62.0533 48.6672 61.04C52.4005 58.8 54.2672 54.6133 54.2672 48.48V20.56L59.5472 17.76V17.84L59.6272 17.76V37.92C59.6272 44 62.5605 47.04 68.4272 47.04ZM95.4209 47.04H98.2209V52H94.7809C89.9809 52 86.3809 50.3733 83.9809 47.12C81.4743 50.3733 77.8476 52 73.1009 52H69.6609V47.04H72.4609C78.3276 47.04 81.2609 44 81.2609 37.92V20.56L86.6209 17.76V37.92C86.6209 44 89.5543 47.04 95.4209 47.04ZM83.1009 60.4C85.1809 60.4 86.2209 61.4667 86.2209 63.6C86.2209 65.84 85.1809 66.96 83.1009 66.96C80.9143 66.96 79.8209 65.84 79.8209 63.6C79.8209 61.4667 80.9143 60.4 83.1009 60.4ZM101.414 7.2C99.2274 7.2 98.1341 6.08 98.1341 3.84C98.1341 1.70666 99.2274 0.639998 101.414 0.639998C103.494 0.639998 104.534 1.70666 104.534 3.84C104.534 6.08 103.494 7.2 101.414 7.2ZM110.534 7.2C108.347 7.2 107.254 6.08 107.254 3.84C107.254 1.70666 108.347 0.639998 110.534 0.639998C112.614 0.639998 113.654 1.70666 113.654 3.84C113.654 6.08 112.614 7.2 110.534 7.2ZM96.6141 52V47.04H99.4141C105.281 47.04 108.214 44 108.214 37.92V20.56L113.574 17.76V38.08C113.574 42.56 112.267 46.0533 109.654 48.56C107.254 50.8533 104.054 52 100.054 52H96.6141Z" fill="white"/>
</svg>
